# xmcd
#
# Track frame offsets:
#	150
#	27090
#	41915
#	53045
#	84792
#	103257
#	116505
#	122232
#	139250
#	153532
#	164805
#	173615
#	195292
#	229337
#
# Disc length: 3219 seconds
#
# Revision: 1
# Processed by: cddbd v1.5.1PL0 Copyright (c) Steve Scherf et al.
# Submitted via: CDex 1.50Beta5
#
DISCID=ba0c910e
DTITLE=ユジュム - トゥバのホーメイ ウルテムチェイ〜ホーメイの天地
DYEAR=1900
DGENRE=Other
TTITLE0=ビザーンチとホーメイ
TTITLE1=コジャマクタル
TTITLE2=ホンデルゲイ
TTITLE3=ウルテムチェイ
TTITLE4=デンビルデイ、ドゥングルダイ
TTITLE5=アラガー
TTITLE6=海はどこから
TTITLE7=私のドシュプルール
TTITLE8=アヤルガラル
TTITLE9=恋しい牧夫の娘
TTITLE10=競馬馬を貸してチラ・ボラ
TTITLE11=3種類のホムス
TTITLE12=スグット、カルグラ、ホーメイ
TTITLE13=ホーメイ、ボルバンナディル、鼻のホーメイ
EXTD=
EXTT0=
EXTT1=
EXTT2=
EXTT3=
EXTT4=
EXTT5=
EXTT6=
EXTT7=
EXTT8=
EXTT9=
EXTT10=
EXTT11=
EXTT12=
EXTT13=
PLAYORDER=
